<svg width="680" height="170" viewBox="20 0 350 130" fill="none" xmlns="http://www.w3.org/2000/svg">
<path d="M135.697 47.7705C135.866 47.7705 136.028 47.8376 136.147 47.9569C136.266 48.0763 136.333 48.2381 136.333 48.4069V74.8024C136.333 87.313 128.5 93.4791 118.172 93.4791C107.844 93.4791 100.011 87.313 100.011 74.8024V48.3942C100.011 48.2254 100.078 48.0635 100.197 47.9442C100.316 47.8249 100.478 47.7578 100.647 47.7578H106.781C106.95 47.7578 107.112 47.8249 107.231 47.9442C107.351 48.0635 107.418 48.2254 107.418 48.3942V74.3379C107.418 83.0685 111.974 86.5303 118.204 86.5303C124.434 86.5303 128.939 83.0685 128.939 74.3379V48.3942C128.939 48.2254 129.006 48.0635 129.125 47.9442C129.245 47.8249 129.406 47.7578 129.575 47.7578L135.697 47.7705Z" fill="#101820"/>
<path d="M243.22 70.2329C243.156 83.4498 233.077 93.4658 219.924 93.4658C206.77 93.4658 196.627 83.4498 196.627 70.2329C196.627 57.0161 206.77 47 219.924 47C233.077 47 243.156 57.0161 243.22 70.2329ZM203.945 70.2329C203.945 79.5999 210.811 86.5297 219.924 86.5297C229.036 86.5297 235.832 79.5999 235.832 70.2329C235.832 60.8659 228.966 53.9362 219.924 53.9362C210.881 53.9362 203.945 60.8659 203.945 70.2329Z" fill="#101820"/>
<path d="M306.969 92.6952H300.605C300.505 92.6922 300.406 92.6654 300.318 92.6169C300.23 92.5685 300.155 92.4999 300.098 92.4167C300.042 92.3335 300.006 92.2381 299.993 92.1383C299.981 92.0384 299.992 91.9371 300.026 91.8425L316.832 48.4312C316.9 48.2552 317.02 48.1039 317.175 47.9971C317.331 47.8904 317.515 47.8332 317.704 47.833H325.652C325.841 47.8323 326.025 47.8891 326.181 47.996C326.337 48.1029 326.456 48.2547 326.524 48.4312L343.342 91.868C343.376 91.9626 343.388 92.0639 343.375 92.1637C343.363 92.2635 343.327 92.3589 343.27 92.4421C343.214 92.5253 343.138 92.594 343.05 92.6424C342.962 92.6908 342.864 92.7176 342.763 92.7207H336.387C336.26 92.719 336.136 92.6794 336.032 92.6068C335.927 92.5342 335.847 92.432 335.802 92.3134L322.247 56.57C322.198 56.4571 322.116 56.3611 322.013 56.2937C321.909 56.2263 321.789 56.1904 321.665 56.1904C321.542 56.1904 321.421 56.2263 321.318 56.2937C321.214 56.3611 321.133 56.4571 321.083 56.57L307.529 92.3134C307.481 92.4234 307.403 92.5175 307.304 92.5851C307.205 92.6526 307.089 92.6908 306.969 92.6952V92.6952Z" fill="#101820"/>
<path d="M52.5782 92.6952H46.2147C46.1142 92.6922 46.0158 92.6654 45.9277 92.6169C45.8395 92.5685 45.7641 92.4999 45.7076 92.4167C45.6511 92.3335 45.6151 92.2381 45.6026 92.1383C45.5901 92.0384 45.6014 91.9371 45.6357 91.8425L62.4415 48.4312C62.5088 48.2547 62.6283 48.1029 62.784 47.996C62.9398 47.8891 63.1244 47.8323 63.3133 47.833H71.2612C71.4499 47.8332 71.6342 47.8904 71.7897 47.9971C71.9453 48.1039 72.065 48.2552 72.133 48.4312L88.9261 91.868C88.9604 91.9626 88.9717 92.0639 88.9592 92.1637C88.9467 92.2635 88.9107 92.3589 88.8542 92.4421C88.7977 92.5253 88.7223 92.594 88.6341 92.6424C88.546 92.6908 88.4476 92.7176 88.347 92.7207H81.9836C81.8565 92.719 81.7328 92.6794 81.6285 92.6068C81.5241 92.5342 81.4439 92.432 81.3982 92.3134L67.8504 56.5446C67.8006 56.4316 67.7191 56.3356 67.6157 56.2682C67.5123 56.2008 67.3916 56.1649 67.2682 56.1649C67.1448 56.1649 67.024 56.2008 66.9206 56.2682C66.8173 56.3356 66.7357 56.4316 66.6859 56.5446L53.1318 92.288C53.0882 92.4017 53.0128 92.5006 52.9147 92.5728C52.8166 92.645 52.6998 92.6875 52.5782 92.6952V92.6952Z" fill="#101820"/>
<path d="M288.292 91.6834L275.686 75.5839C282.8 74.2349 286.962 69.4305 286.962 62.0616C286.962 53.5983 281.451 47.833 271.69 47.833H254.127C253.879 47.833 253.641 47.9316 253.465 48.107C253.29 48.2824 253.191 48.5203 253.191 48.7684V48.7684C253.191 50.3565 253.822 51.8796 254.945 53.0026C256.068 54.1255 257.591 54.7564 259.179 54.7564H270.945C276.838 54.7564 279.657 57.7663 279.657 62.1253C279.657 66.4842 276.902 69.5578 270.945 69.5578H254.127C253.879 69.5578 253.641 69.6563 253.465 69.8318C253.29 70.0072 253.191 70.2451 253.191 70.4932V92.0716C253.191 92.2404 253.258 92.4022 253.378 92.5216C253.497 92.6409 253.659 92.7079 253.828 92.7079H259.822C259.991 92.7079 260.153 92.6409 260.272 92.5216C260.391 92.4022 260.458 92.2404 260.458 92.0716V75.9594H267.382L278.327 90.2453C278.908 91.0052 279.656 91.6209 280.514 92.0447C281.371 92.4685 282.315 92.6889 283.271 92.6888H287.828C287.94 92.6796 288.048 92.6407 288.14 92.5762C288.232 92.5117 288.306 92.4238 288.353 92.3216C288.4 92.2193 288.419 92.1064 288.409 91.9943C288.398 91.8822 288.358 91.7749 288.292 91.6834Z" fill="#101820"/>
<path d="M186.523 91.6834L173.917 75.5839C181.031 74.2349 185.199 69.4305 185.199 62.0616C185.199 53.5983 179.688 47.833 169.927 47.833H152.357C152.109 47.833 151.871 47.9316 151.696 48.107C151.52 48.2824 151.422 48.5203 151.422 48.7684V48.7684C151.424 50.356 152.055 51.8781 153.178 53.0007C154.3 54.1233 155.822 54.7547 157.41 54.7564H169.176C175.075 54.7564 177.894 57.7663 177.894 62.1253C177.894 66.4842 175.138 69.5578 169.176 69.5578H152.357C152.109 69.5578 151.871 69.6563 151.696 69.8318C151.52 70.0072 151.422 70.2451 151.422 70.4932V92.0716C151.422 92.2404 151.489 92.4022 151.608 92.5216C151.728 92.6409 151.889 92.7079 152.058 92.7079H158.059C158.228 92.7079 158.39 92.6409 158.509 92.5216C158.628 92.4022 158.695 92.2404 158.695 92.0716V75.9594H165.612L176.557 90.2453C177.139 91.0041 177.888 91.619 178.745 92.0427C179.602 92.4664 180.546 92.6875 181.502 92.6888H186.058C186.17 92.6796 186.278 92.6407 186.37 92.5762C186.463 92.5117 186.536 92.4238 186.583 92.3216C186.631 92.2193 186.65 92.1064 186.639 91.9943C186.628 91.8822 186.588 91.7749 186.523 91.6834Z" fill="#101820"/>
<path d="M46.16 123H47.216V108.456L53.888 123H54.728L61.4 108.456V123H62.48V106.2H61.4L54.368 121.44L47.36 106.2H46.16V123ZM101.296 123.24C104.92 123.24 107.584 120.504 107.584 116.808V106.2H106.504V116.808C106.504 119.928 104.296 122.208 101.296 122.208C98.2724 122.208 96.0644 119.928 96.0644 116.808V106.2H95.0084V116.808C95.0084 120.504 97.6724 123.24 101.296 123.24ZM140.107 106.2V123H150.019V121.992H141.163V106.2H140.107ZM188.937 106.2H176.361V107.208H182.121V123H183.177V107.208H188.937V106.2ZM220.085 106.2V123H221.141V106.2H220.085ZM258.044 105.96C255.044 105.96 252.836 107.736 252.836 110.208C252.836 116.448 262.628 113.568 262.628 118.536C262.628 120.696 260.78 122.232 258.188 122.232C256.004 122.232 254.276 121.344 252.932 120.24L252.284 121.08C253.772 122.28 255.692 123.24 258.188 123.24C261.476 123.24 263.732 121.2 263.732 118.536C263.732 112.536 253.916 115.392 253.916 110.16C253.916 108.312 255.644 106.968 257.996 106.968C259.82 106.968 261.5 107.664 262.316 108.744L263.012 107.952C262.1 106.8 260.132 105.96 258.044 105.96ZM295.212 106.2V123H296.268V106.2H295.212ZM337.059 115.344H341.907V120.144C340.539 121.44 338.715 122.208 336.363 122.208C332.139 122.208 329.043 118.944 329.043 114.528C329.043 110.136 332.115 106.968 336.339 106.968C338.955 106.968 341.283 108.264 342.267 110.208L343.203 109.728C342.123 107.448 339.387 105.96 336.339 105.96C331.539 105.96 327.963 109.536 327.963 114.528C327.963 119.52 331.539 123.24 336.363 123.24C339.219 123.24 341.451 122.208 342.963 120.456V114.336H337.059V115.344Z" fill="#101820"/>
</svg>
